# xmcd
#
# Track frame offsets: 
#        200
#        12742
#        24207
#        36570
#        49647
#        58915
#        75575
#        84347
#        93427
#        107390
#        120435
#
# Disc length: 1741 seconds
#
# Revision: 0
# Processed by: cddbd v1.5.1PL0 Copyright (c) Steve Scherf et al.
# Submitted via: ExactAudioCopy v0.95a5
#
DISCID=7e06cb0b
DTITLE=Frank Frost - The Very Best Of Frank Frost
DYEAR=1962
DGENRE=Blues
TTITLE0=Big Boss Man
TTITLE1=Jelly Roll King
TTITLE2=What You Gonna Do
TTITLE3=You're So Kind
TTITLE4=Pocket Full Of Shells
TTITLE5=Lucky To Be Living
TTITLE6=New Twist
TTITLE7=Crawl Back
TTITLE8=So Tired Of Living By Myself
TTITLE9=Gonna Make You Mine
TTITLE10=Jack's Jump (Tape Stretch on Master)
EXTD=
EXTT0=
EXTT1=
EXTT2=
EXTT3=
EXTT4=
EXTT5=
EXTT6=
EXTT7=
EXTT8=
EXTT9=
EXTT10=
PLAYORDER=
